# xmcd
#
# Track frame offsets:
#	150
#	14987
#	35862
#	51695
#	67190
#	86187
#	102855
#	122452
#	137492
#	155682
#	172032
#	186950
#	201407
#	218370
#	236012
#	255582
#
# Disc length: 3658 seconds
#
# Revision: 1
# Processed by: cddbd v1.5.1PL0 Copyright (c) Steve Scherf et al.
# Submitted via: CDex 1.50Beta5
#
DISCID=f80e4810
DTITLE=石原裕次郎 - 石原裕次郎/北国の詩
DYEAR=1900
DGENRE=
TTITLE0=赤いハンカチ
TTITLE1=さいはて哀歌
TTITLE2=みぞれの酒場
TTITLE3=雪国の町
TTITLE4=遠きふるさと
TTITLE5=慕情のひと
TTITLE6=雪なさけ
TTITLE7=黒い海峡
TTITLE8=恋の町札幌
TTITLE9=おれの小樽
TTITLE10=可哀そうな露子
TTITLE11=粉雪の詩
TTITLE12=北国の空は燃えている
TTITLE13=ポプラと私
TTITLE14=北の旅人
TTITLE15=想いではアカシア
EXTD=
EXTT0=
EXTT1=
EXTT2=
EXTT3=
EXTT4=
EXTT5=
EXTT6=
EXTT7=
EXTT8=
EXTT9=
EXTT10=
EXTT11=
EXTT12=
EXTT13=
EXTT14=
EXTT15=
PLAYORDER=
